<svg xmlns="http://www.w3.org/2000/svg" viewBox="0 0 1000 1000"><defs><style>.cls-1{fill:#fff;}</style></defs><title>Wissen Vertical negro</title><g id="Capa_8" data-name="Capa 8"><g id="fill"><path class="cls-1" d="M358.58,443.92l-29.76,92.36a15.23,15.23,0,0,0,.92,12.06,15.53,15.53,0,0,0,9.36,8A15.93,15.93,0,0,0,359,546l69.05-214.26a15.94,15.94,0,0,0-10.13-20,15.48,15.48,0,0,0-12.27,1,15.22,15.22,0,0,0-7.79,9.25l-29.56,91.71-90.83-30.39L307,291.62a15.93,15.93,0,0,0-10.13-20,15.52,15.52,0,0,0-12.27,1,15.29,15.29,0,0,0-7.8,9.25l-69,214.26a15.22,15.22,0,0,0,.92,12.07,15.52,15.52,0,0,0,9.36,8A15.91,15.91,0,0,0,238,505.89l29.76-92.36Z"/><path class="cls-1" d="M405.07,516.47a96,96,0,0,0,10.27,35q18.38,35.32,56.33,47.56,47.13,15.18,84.15-6.75a15.78,15.78,0,0,0,5.74-21.67,15.78,15.78,0,0,0-9.78-7.26,14.81,14.81,0,0,0-11.95,1.68Q515,579.7,481.4,568.87a63.27,63.27,0,0,1-33.79-25.14,62,62,0,0,1-11.17-39.43l136,43.81a15.47,15.47,0,0,0,12.27-1,15.26,15.26,0,0,0,7.8-9.25A93.81,93.81,0,0,0,596.64,500a95,95,0,0,0-10.17-35.36q-18.33-35.49-56.11-47.66a94.13,94.13,0,0,0-38-4.24,97,97,0,0,0-35.52,10.12Q421.37,441,409.2,478.77A93.29,93.29,0,0,0,405.07,516.47Zm73.24-68.54a64.55,64.55,0,0,1,86.91,64.36L446.22,474A63.17,63.17,0,0,1,478.31,447.93Z"/><path class="cls-1" d="M785.47,509.66a14.88,14.88,0,0,0-5.42-10.83,16.07,16.07,0,0,0-5.56-3.22,16,16,0,0,0-16.85,4.73l-89.15,103L656.08,467.61a16,16,0,0,0-10.92-13.68,15,15,0,0,0-6.23-.58,15.85,15.85,0,0,0-13.84,10.87,16.06,16.06,0,0,0-.63,6.39l15.12,166-38.73,44.65H337.48c-8.23,0-10.82,6.67-10.82,14.9h0c0,8.23,2.59,14.9,10.82,14.9H611.29v0q6-.31,10.58-5.63L781.72,521.29a15,15,0,0,0,3.17-5.4A15.12,15.12,0,0,0,785.47,509.66Z"/><circle class="cls-1" cx="276.06" cy="695.55" r="23.42"/></g><path d="M227.74,769.39a14.56,14.56,0,0,1,1,11.8L179.08,935.37q-3.44,10.49-14.58,10.48t-14.58-10.48l-35.23-109-35.06,109q-3.45,10.49-14.58,10.48T50.46,935.37L.82,781.19A14.88,14.88,0,0,1,0,776.44a15.08,15.08,0,0,1,1.8-7.05,14.5,14.5,0,0,1,8.85-7.53A14.88,14.88,0,0,1,15.4,761a15.08,15.08,0,0,1,7,1.8A14.5,14.5,0,0,1,30,771.69L65.05,880.64l35.06-108.95Q103.55,761,114.69,761q11.31,0,14.58,10.65L164.5,880.64l35.06-108.95a14.48,14.48,0,0,1,7.54-8.85,15,15,0,0,1,7-1.8,14.84,14.84,0,0,1,4.75.82A14.47,14.47,0,0,1,227.74,769.39Z"/><path d="M276.06,761a15.66,15.66,0,0,1,15.4,15.4V930.62a14.46,14.46,0,0,1-4.58,10.81,15.44,15.44,0,0,1-21.63,0,14.44,14.44,0,0,1-4.59-10.81V776.44a15.68,15.68,0,0,1,15.4-15.4Z"/><path d="M347.28,934.71a75.41,75.41,0,0,1-22.44-23.1,14.6,14.6,0,0,1-1.8-11.47,15.4,15.4,0,0,1,6.71-9.67,15,15,0,0,1,11.64-1.8,14.66,14.66,0,0,1,9.5,6.88A43.32,43.32,0,0,0,364,908.83q9.17,6.38,18.51,6.38a27,27,0,0,0,18.68-6.88q7.86-6.71,7.86-16.38,0-9.83-6.39-14.58-5.57-4.26-24.41-9.34-23.76-6.56-34.41-14.42-18.68-13.43-18.68-38.67,0-22.28,16.88-38.17Q358.75,761,382.51,761A59,59,0,0,1,414,769.89a53.32,53.32,0,0,1,21,23.59,15.15,15.15,0,0,1-7.54,20.32,15.27,15.27,0,0,1-20.31-7.54,23.84,23.84,0,0,0-9.67-10.65,29,29,0,0,0-14.91-3.93,27.62,27.62,0,0,0-18.84,6.88,20.93,20.93,0,0,0-7.7,16.38q0,9.67,6.06,14.26,5.57,3.93,24.41,9.17,23.93,6.72,34.57,14.42,18.67,13.77,18.68,39.16,0,22.27-16.71,38.17-16.87,15.74-40.47,15.73Q364,945.85,347.28,934.71Z"/><path d="M492.8,934.71a75.29,75.29,0,0,1-22.44-23.1,14.65,14.65,0,0,1-1.81-11.47,15.41,15.41,0,0,1,6.72-9.67,15,15,0,0,1,11.63-1.8,14.66,14.66,0,0,1,9.51,6.88,43.4,43.4,0,0,0,13.1,13.28q9.18,6.38,18.52,6.38a27,27,0,0,0,18.68-6.88q7.86-6.71,7.86-16.38,0-9.83-6.39-14.58-5.56-4.26-24.41-9.34-23.76-6.56-34.41-14.42-18.67-13.43-18.68-38.67,0-22.28,16.88-38.17Q504.27,761,528,761a59,59,0,0,1,31.46,8.85,53.32,53.32,0,0,1,21,23.59,15.15,15.15,0,0,1-7.54,20.32,15.27,15.27,0,0,1-20.31-7.54,23.84,23.84,0,0,0-9.67-10.65A29,29,0,0,0,528,791.68a27.62,27.62,0,0,0-18.84,6.88,20.93,20.93,0,0,0-7.7,16.38q0,9.67,6.06,14.26,5.56,3.93,24.41,9.17,23.92,6.72,34.57,14.42,18.68,13.77,18.68,39.16,0,22.27-16.71,38.17Q551.63,945.86,528,945.85,509.5,945.85,492.8,934.71Z"/><path d="M640.21,918.82a92.76,92.76,0,0,1-19.82-29.16A90.1,90.1,0,0,1,613,853.77q0-38.34,27.19-65.53a93.69,93.69,0,0,1,29.66-19.83A91.06,91.06,0,0,1,706.08,761q38.34,0,65.7,27.2a91.75,91.75,0,0,1,19.83,29.49,90.64,90.64,0,0,1,7.37,36,14.76,14.76,0,0,1-4.42,10.82,15,15,0,0,1-11,4.59h-138a60,60,0,0,0,22,32.93,61.05,61.05,0,0,0,38.5,13.1q34.08,0,52.6-20.8a14.22,14.22,0,0,1,10.48-5.08,15.25,15.25,0,0,1,11.14,3.77,15.25,15.25,0,0,1,1.15,21.62q-27.53,31.14-75.37,31.13Q667.58,945.85,640.21,918.82Zm126.17-80.45a62.35,62.35,0,0,0-120.76,0Z"/><path d="M915.13,760.55q35.05,0,60,27.2,24.92,27,24.91,65.37v77.5a15.42,15.42,0,0,1-26.22,10.81,15.09,15.09,0,0,1-4.42-10.81v-77.5q0-25.56-15.89-43.75-16.07-18-38.34-18-22.61,0-38.51,18-15.89,18.2-15.89,43.75v77a14.72,14.72,0,0,1-4.42,10.82,15.05,15.05,0,0,1-10.81,4.42,15.26,15.26,0,0,1-11-4.42,14.73,14.73,0,0,1-4.43-10.82v-148a14.7,14.7,0,0,1,4.43-10.81,15,15,0,0,1,11-4.59,15.38,15.38,0,0,1,15.23,15.4V782Q884.33,760.55,915.13,760.55Z"/><g id="outline"><path d="M292,270.8a16,16,0,0,1,5,.81,15.93,15.93,0,0,1,10.13,20l-29.56,91.72,90.83,30.39L397.87,322a15.22,15.22,0,0,1,7.79-9.25,15.86,15.86,0,0,1,7.31-1.85,16,16,0,0,1,5,.81,15.94,15.94,0,0,1,10.13,20L359,546a15.22,15.22,0,0,1-7.79,9.25,16,16,0,0,1-7.33,1.86,15.77,15.77,0,0,1-4.79-.77,15.53,15.53,0,0,1-9.36-8,15.23,15.23,0,0,1-.92-12.06l29.76-92.36-90.83-30.39L238,505.89a15.24,15.24,0,0,1-7.79,9.25,16,16,0,0,1-7.33,1.86,16,16,0,0,1-14.15-8.78,15.22,15.22,0,0,1-.92-12.07l69-214.26a15.26,15.26,0,0,1,7.8-9.25A15.84,15.84,0,0,1,292,270.8m0-17.35h0a33.09,33.09,0,0,0-15.22,3.75,32.52,32.52,0,0,0-16.4,19.37l-69,214.26a33.28,33.28,0,0,0,21.48,41.91,32.63,32.63,0,0,0,25.35-2.16,32.54,32.54,0,0,0,16.39-19.37l24.38-75.66,57.93,19.38-24.5,76a33.26,33.26,0,0,0,21.47,41.9,32.63,32.63,0,0,0,25.35-2.16,32.5,32.5,0,0,0,16.39-19.37l69.05-214.26a33.28,33.28,0,0,0-21.31-41.85A33.59,33.59,0,0,0,413,293.57a33.1,33.1,0,0,0-15.22,3.76,32.46,32.46,0,0,0-16.4,19.37l-24.17,75-57.92-19.38L323.55,297a33.27,33.27,0,0,0-21.32-41.85A33.18,33.18,0,0,0,292,253.45Z"/><path d="M640.72,453.25a14.52,14.52,0,0,1,4.44.68,16,16,0,0,1,10.92,13.68l12.41,135.71,89.15-103a15.55,15.55,0,0,1,10.83-5.42c.43,0,.86-.05,1.28-.05a15.55,15.55,0,0,1,4.74.74,16.07,16.07,0,0,1,5.56,3.22,14.88,14.88,0,0,1,5.42,10.83,15.12,15.12,0,0,1-.58,6.23,15,15,0,0,1-3.17,5.4L621.87,705.4c-3,3.55-10.58,5.65-10.58,5.65H355.71a14.9,14.9,0,1,1,0-29.8H600.85l38.73-44.65-15.12-166a16.06,16.06,0,0,1,.63-6.39,15.85,15.85,0,0,1,13.84-10.87c.61-.06,1.21-.1,1.79-.1m0-17.35h0a33.13,33.13,0,0,0-3.43.18,32.75,32.75,0,0,0-22.44,11.59l0,0,0,0a32.77,32.77,0,0,0-6.22,11.18,33.46,33.46,0,0,0-1.41,13.23v.05l14.45,158.64L592.94,663.9H355.71a32.25,32.25,0,1,0,0,64.5h258l2.29-.64c3.78-1.06,13.18-4.25,19-11l159.76-184a33.42,33.42,0,0,0-3.44-47.11,33.4,33.4,0,0,0-11.5-6.53,32.65,32.65,0,0,0-10.06-1.58c-.87,0-1.76,0-2.63.1H767a32.82,32.82,0,0,0-22.47,11.31l0,0,0,0-62.47,72.17L673.35,466v0h0a32.85,32.85,0,0,0-11.64-22.31l0,0,0,0a32.67,32.67,0,0,0-11.16-6.21,31.62,31.62,0,0,0-9.76-1.52Z"/><circle cx="276.06" cy="695.55" r="23.42"/></g><path d="M328.82,536.28l29.76-92.36-90.83-30.39L238,505.89a16.59,16.59,0,0,1-2.21,4.46l72.55,29.19.15.06.59.23c1.14.45,7.48,2.17,8.66,2.54a48,48,0,0,0,10.59,2A15.43,15.43,0,0,1,328.82,536.28Z"/><path d="M762.16,363.21,713.91,345c13.21-94.05,0-170.66-38.29-221.82a164.11,164.11,0,0,0-50.47-44.61c-20.43-11.63-44.07-19.33-70.24-22.9a158.55,158.55,0,0,0-84,11.15c-25.16,10.6-48.37,27.51-69,50.27-24.63,27.2-44.62,62-58.73,101.4l-8.71-3.5a47.45,47.45,0,0,0-7.17-2.87C281.82,198,224.32,253.28,198.83,335.52,179,399.53,184.41,461,209.21,491.77l67.63-209.88a15.29,15.29,0,0,1,7.8-9.25,15.52,15.52,0,0,1,12.27-1,15.93,15.93,0,0,1,10.13,20l-29.56,91.72,90.83,30.39L397.87,322a15.22,15.22,0,0,1,7.79-9.25,15.48,15.48,0,0,1,12.27-1,15.94,15.94,0,0,1,10.13,20L362.35,535.66c15.34-8.76,30.25-23.67,43.51-43.11a94.67,94.67,0,0,1,3.34-13.78q7.59-23.58,24.25-39.51,4.07-10.45,7.53-21.61c25.49-82.24,9.3-160.33-36.15-174.41l-17.6-7.07c12-34.27,29-64.18,49.85-87.22,22.59-24.94,60.26-53.22,111.41-46.24,38.8,5.29,68.78,21.75,89.12,48.92,28.84,38.52,39.56,100.65,30.65,176.13L663.52,326h0c-1-.38-2-.74-3-1.06-40.29-12.48-90,29.52-118.58,96.5q29.13,13.36,44.54,43.18A95,95,0,0,1,596.64,500a93.81,93.81,0,0,1-4.18,37.87,15.26,15.26,0,0,1-7.8,9.25,15.47,15.47,0,0,1-12.27,1l-52.72-17a165.14,165.14,0,0,0,5.58,40.14,59.83,59.83,0,0,0,14.58-6.19,14.81,14.81,0,0,1,11.95-1.68,15.78,15.78,0,0,1,9.78,7.26,15.78,15.78,0,0,1-5.74,21.67,93.53,93.53,0,0,1-17.42,8.08c6.66,9.57,15,16.65,25,20.55l1.49.63L566,622l.14.06L631,646.45l8.54-9.85-15.12-166a16.06,16.06,0,0,1,.63-6.39,15.85,15.85,0,0,1,13.84-10.87,15,15,0,0,1,6.23.58,16,16,0,0,1,10.92,13.68l12.41,135.71,89.15-103a16,16,0,0,1,16.85-4.73,16.07,16.07,0,0,1,5.56,3.22,14.88,14.88,0,0,1,5.42,10.83,15.12,15.12,0,0,1-.58,6.23,15,15,0,0,1-3.17,5.4l-119,137.06,2,.76a50.65,50.65,0,0,0,5.16,1.94c45.45,14.08,103-41.18,128.44-123.42S807.61,377.3,762.16,363.21Z"/><path d="M565.31,506.62a63.67,63.67,0,0,0-1-10.1q-.46-2.53-1.15-5a64.59,64.59,0,0,0-8.78-19.05v0a70.07,70.07,0,0,0-4.39-5.71q-.59-.69-1.17-1.35a66.78,66.78,0,0,0-4.71-4.8c-.08-.07-.15-.15-.22-.22a64,64,0,0,0-5.52-4.36c-.41-.3-.84-.58-1.26-.87a63.2,63.2,0,0,0-5.65-3.41c-.11-.06-.21-.14-.32-.19h0a66.45,66.45,0,0,0-10.48-4.39,65.31,65.31,0,0,0-20.08-3.25,64.36,64.36,0,0,0-22.24,4.05,63.17,63.17,0,0,0-32.09,26l75.12,24.2h0l43.88,14.14c.1-1.8.14-3.59.11-5.36C565.32,506.82,565.31,506.72,565.31,506.62Z"/><path d="M613.92,498.4a112.52,112.52,0,0,0-12-41.71v-.05c-14.34-27.77-36.62-46.68-66.2-56.22a112.62,112.62,0,0,0-34.5-5.48c-3.45,0-6.95.16-10.41.49A114.6,114.6,0,0,0,449,407.33l-.05,0-.05,0c-27.76,14.23-46.67,36.46-56.22,66.07a111.13,111.13,0,0,0-4.89,44.63,113.9,113.9,0,0,0,12.11,41.34l0,.05,0,0c14.38,27.64,36.71,46.5,66.39,56.07a138.09,138.09,0,0,0,42.21,7,108.55,108.55,0,0,0,56.08-15.36,33.19,33.19,0,0,0,14.06-41,33.15,33.15,0,0,0,13.89-3.72A32.54,32.54,0,0,0,609,543.15,111.61,111.61,0,0,0,613.92,498.4Zm-21.46,39.43a15.23,15.23,0,0,1-7.8,9.25,15.8,15.8,0,0,1-7.3,1.84,16.1,16.1,0,0,1-5-.81L436.44,504.3a62,62,0,0,0,11.17,39.43,63.27,63.27,0,0,0,33.79,25.14,88,88,0,0,0,27,4.61,60.92,60.92,0,0,0,31.45-8.41,14.65,14.65,0,0,1,7.75-2.25,16.31,16.31,0,0,1,4.2.57,15.78,15.78,0,0,1,9.78,7.26,15.78,15.78,0,0,1-5.74,21.67,91.06,91.06,0,0,1-47.27,13,120.28,120.28,0,0,1-36.88-6.21q-37.95-12.24-56.33-47.56a96,96,0,0,1-10.27-35,93.29,93.29,0,0,1,4.13-37.7q12.17-37.78,47.61-55.95a97,97,0,0,1,35.52-10.12q4.44-.4,8.85-.41a94.58,94.58,0,0,1,29.18,4.65q37.78,12.17,56.11,47.66A95,95,0,0,1,596.64,500,93.81,93.81,0,0,1,592.46,537.83Z"/></g></svg>