<svg xmlns="http://www.w3.org/2000/svg" viewBox="0 0 1130.72 300"><defs><style>.cls-1{fill:#fff;}</style></defs><title>Wissen Horizontal blanco</title><g id="Capa_5" data-name="Capa 5"><path class="cls-1" d="M515.88,123.52a11.58,11.58,0,0,1,.78,9.4L477.13,255.67Q474.4,264,465.53,264t-11.61-8.34l-28.05-86.75L398,255.67Q395.22,264,386.34,264t-11.61-8.34L335.21,132.92a11.85,11.85,0,0,1-.65-3.79,12.05,12.05,0,0,1,1.43-5.61,11.58,11.58,0,0,1,7.05-6,11.51,11.51,0,0,1,9.39.79,11.53,11.53,0,0,1,6,7l27.91,86.75,27.92-86.75q2.75-8.47,11.61-8.48t11.61,8.48l28,86.75,27.91-86.75a11.5,11.5,0,0,1,6-7,11.51,11.51,0,0,1,9.39-.79A11.58,11.58,0,0,1,515.88,123.52Z"/><path class="cls-1" d="M554.35,116.87a12.47,12.47,0,0,1,12.26,12.26V251.88a11.52,11.52,0,0,1-3.65,8.61,12.29,12.29,0,0,1-17.22,0,11.5,11.5,0,0,1-3.66-8.61V129.13a12.49,12.49,0,0,1,12.27-12.26Z"/><path class="cls-1" d="M611.05,255.14a59.88,59.88,0,0,1-17.87-18.39,11.63,11.63,0,0,1-1.43-9.13,12.26,12.26,0,0,1,5.34-7.7,12,12,0,0,1,9.27-1.43,11.63,11.63,0,0,1,7.56,5.48,34.56,34.56,0,0,0,10.44,10.56q7.3,5.08,14.74,5.09A21.56,21.56,0,0,0,654,234.14a16.54,16.54,0,0,0,6.26-13q0-7.83-5.09-11.61-4.42-3.39-19.43-7.44-18.91-5.2-27.4-11.48-14.87-10.69-14.87-30.78,0-17.74,13.44-30.4t32.22-12.52a47,47,0,0,1,25,7,42.43,42.43,0,0,1,16.7,18.78,12.07,12.07,0,0,1-6,16.18,12.17,12.17,0,0,1-16.18-6,19,19,0,0,0-7.69-8.48,23.13,23.13,0,0,0-11.87-3.12,22,22,0,0,0-15,5.47,16.7,16.7,0,0,0-6.14,13q0,7.69,4.83,11.35,4.44,3.12,19.44,7.3,19,5.35,27.52,11.48,14.88,11,14.87,31.18,0,17.73-13.3,30.39A45.6,45.6,0,0,1,639.1,264,49.71,49.71,0,0,1,611.05,255.14Z"/><path class="cls-1" d="M726.91,255.14A59.88,59.88,0,0,1,709,236.75a11.67,11.67,0,0,1-1.44-9.13,12.28,12.28,0,0,1,5.35-7.7,11.93,11.93,0,0,1,9.26-1.43,11.63,11.63,0,0,1,7.57,5.48,34.53,34.53,0,0,0,10.43,10.56q7.31,5.08,14.74,5.09a21.52,21.52,0,0,0,14.87-5.48,16.52,16.52,0,0,0,6.27-13q0-7.83-5.09-11.61-4.44-3.39-19.44-7.44-18.91-5.2-27.39-11.48-14.88-10.69-14.87-30.78,0-17.74,13.43-30.4T755,116.87a47,47,0,0,1,25,7,42.43,42.43,0,0,1,16.7,18.78,12.07,12.07,0,0,1-6,16.18,12.17,12.17,0,0,1-16.18-6,19,19,0,0,0-7.69-8.48A23.17,23.17,0,0,0,755,141.27a22,22,0,0,0-15,5.47,16.69,16.69,0,0,0-6.13,13q0,7.69,4.83,11.35,4.43,3.12,19.44,7.3,19,5.35,27.52,11.48,14.86,11,14.87,31.18,0,17.73-13.31,30.39A45.57,45.57,0,0,1,755,264,49.7,49.7,0,0,1,726.91,255.14Z"/><path class="cls-1" d="M844.27,242.49a73.78,73.78,0,0,1-15.78-23.22,71.84,71.84,0,0,1-5.87-28.57q0-30.52,21.65-52.17a74.42,74.42,0,0,1,23.61-15.79,72.48,72.48,0,0,1,28.83-5.87q30.52,0,52.31,21.66A73.09,73.09,0,0,1,964.81,162a72.12,72.12,0,0,1,5.86,28.69,11.68,11.68,0,0,1-3.52,8.61,11.91,11.91,0,0,1-8.74,3.66H848.58a47.69,47.69,0,0,0,17.48,26.22,48.64,48.64,0,0,0,30.65,10.43q27.13,0,41.88-16.57a11.31,11.31,0,0,1,8.34-4,12.16,12.16,0,0,1,8.87,3,12.14,12.14,0,0,1,.92,17.22Q934.81,264,896.71,264,866.07,264,844.27,242.49Zm100.45-64.05a49.64,49.64,0,0,0-96.14,0Z"/><path class="cls-1" d="M1063.15,116.48q27.91,0,47.74,21.65t19.83,52.05v61.7a12.27,12.27,0,0,1-20.87,8.61,12,12,0,0,1-3.52-8.61v-61.7q0-20.34-12.66-34.83Q1080.89,141,1063.15,141q-18,0-30.66,14.35t-12.65,34.83v61.31a11.71,11.71,0,0,1-3.52,8.61,12,12,0,0,1-8.61,3.52A12.13,12.13,0,0,1,999,260.1a11.71,11.71,0,0,1-3.52-8.61V133.7a11.71,11.71,0,0,1,3.52-8.61,11.94,11.94,0,0,1,8.74-3.65,12.24,12.24,0,0,1,12.13,12.26v-.13Q1038.62,116.49,1063.15,116.48Z"/><g id="icon"><g id="outline"><circle class="cls-1" cx="74.62" cy="285.39" r="10.42"/></g><path class="cls-1" d="M198.37,186.18A28.12,28.12,0,0,0,188,176.87c-1.06,3.54-1.94,7-2.67,10.51s-1.28,6.89-1.68,10.23l19.51,6.29A28.11,28.11,0,0,0,198.37,186.18Z"/><path class="cls-1" d="M98.08,214.57l13.24-41.07L70.93,160,57.69,201.05a7.24,7.24,0,0,1-1,2L89,216l.07,0,.26.1c.51.2,3.33,1,3.85,1.12a20.94,20.94,0,0,0,4.71.9A6.84,6.84,0,0,1,98.08,214.57Z"/><path class="cls-1" d="M290.77,137.61l-21.45-8.1c5.87-41.83,0-75.89-17-98.64A73.23,73.23,0,0,0,229.85,11,86.4,86.4,0,0,0,198.62.85a70.53,70.53,0,0,0-37.38,5c-11.19,4.71-21.5,12.23-30.67,22.35-10.95,12.1-19.84,27.55-26.11,45.09l-3.88-1.55a20.62,20.62,0,0,0-3.19-1.28c-20.21-6.27-45.78,18.3-57.11,54.88-8.82,28.46-6.41,55.8,4.62,69.48L75,101.45a6.74,6.74,0,0,1,3.47-4.11,7,7,0,0,1,10,8.44L75.25,146.56l40.39,13.51,13.15-40.78a6.72,6.72,0,0,1,3.46-4.11,6.9,6.9,0,0,1,5.46-.46,7.07,7.07,0,0,1,4.5,8.9L113,214.29c6.82-3.89,13.45-10.52,19.35-19.17a43,43,0,0,1,1.48-6.13,41.58,41.58,0,0,1,10.79-17.57c1.2-3.1,2.33-6.3,3.35-9.6,11.33-36.57,4.13-71.3-16.08-77.56l-7.82-3.14C129.4,65.88,137,52.58,146.22,42.34c10.05-11.1,26.8-23.67,49.55-20.57,17.25,2.35,30.58,9.67,39.62,21.75C248.22,60.66,253,88.28,249,121.84l-2.11-.79h0c-.44-.17-.88-.33-1.34-.47-17.91-5.55-40,13.13-52.72,42.91a41.26,41.26,0,0,1,19.8,19.21,42,42,0,0,1,4.52,15.72,41.52,41.52,0,0,1-1.86,16.84,6.78,6.78,0,0,1-3.46,4.11,6.9,6.9,0,0,1-5.46.46L183,212.28a72.89,72.89,0,0,0,2.48,17.84,26.7,26.7,0,0,0,6.48-2.75,6.61,6.61,0,0,1,5.32-.75,7.1,7.1,0,0,1,4.35,3.23,7,7,0,0,1-2.55,9.64,42,42,0,0,1-7.75,3.59,24.48,24.48,0,0,0,11.11,9.14l.66.28.5.19.06,0,28.86,10.85,3.8-4.38-6.73-73.81a7.16,7.16,0,0,1,.29-2.85,6.75,6.75,0,0,1,1.31-2.35,6.88,6.88,0,0,1,4.84-2.48,6.69,6.69,0,0,1,2.77.26,7.08,7.08,0,0,1,2.35,1.31,7,7,0,0,1,2.51,4.77l5.51,60.35,39.65-45.79a7.14,7.14,0,0,1,7.49-2.11,7.35,7.35,0,0,1,2.47,1.43,6.62,6.62,0,0,1,2.41,4.82,6.41,6.41,0,0,1-1.67,5.17l-52.92,61,.89.34c.75.32,1.51.61,2.3.86,20.21,6.26,45.78-18.31,57.11-54.88S311,143.87,290.77,137.61Z"/><path class="cls-1" d="M224.86,197.72a50.18,50.18,0,0,0-5.34-18.54h0a49,49,0,0,0-29.44-25,49.94,49.94,0,0,0-15.34-2.44c-1.54,0-3.09.07-4.63.21a51,51,0,0,0-18.58,5.3h0a48.75,48.75,0,0,0-25,29.38,49.42,49.42,0,0,0-2.17,19.85,50.39,50.39,0,0,0,5.38,18.38v0a49.25,49.25,0,0,0,29.53,24.93A61.37,61.37,0,0,0,178,253a48.3,48.3,0,0,0,24.93-6.83,14.77,14.77,0,0,0,6.25-18.25,14.74,14.74,0,0,0,6.18-1.66,14.43,14.43,0,0,0,7.29-8.61A49.75,49.75,0,0,0,224.86,197.72Zm-9.55,17.54a6.78,6.78,0,0,1-3.46,4.11,7,7,0,0,1-3.25.82,7.15,7.15,0,0,1-2.21-.36l-60.45-19.48a27.54,27.54,0,0,0,5,17.53,28.1,28.1,0,0,0,15,11.18,39,39,0,0,0,12,2.05,27.06,27.06,0,0,0,14-3.74,6.5,6.5,0,0,1,3.45-1,7.7,7.7,0,0,1,1.87.25,7.1,7.1,0,0,1,4.35,3.23,7,7,0,0,1-2.55,9.64,40.55,40.55,0,0,1-21,5.76,53.56,53.56,0,0,1-16.41-2.76,41.61,41.61,0,0,1-25-21.15A42.6,42.6,0,0,1,132,205.76,41.59,41.59,0,0,1,133.82,189,41.1,41.1,0,0,1,155,164.12a42.88,42.88,0,0,1,15.79-4.5c1.32-.13,2.63-.19,3.94-.19a42,42,0,0,1,13,2.07,41.35,41.35,0,0,1,25,21.2,42,42,0,0,1,4.52,15.72A41.52,41.52,0,0,1,215.31,215.26Z"/><path class="cls-1" d="M183.37,174.93a28.11,28.11,0,0,0-18.81.35,28.09,28.09,0,0,0-14.27,11.57L203.2,203.9a28.59,28.59,0,0,0-19.83-29Z"/><path class="cls-1" d="M81.69,96.52a7.08,7.08,0,0,1,2.2.36,7.07,7.07,0,0,1,4.51,8.9L75.25,146.56l40.39,13.51,13.15-40.78a6.72,6.72,0,0,1,3.46-4.11,7,7,0,0,1,3.25-.82,7.15,7.15,0,0,1,2.21.36,7.07,7.07,0,0,1,4.5,8.9l-30.7,95.27A6.78,6.78,0,0,1,108,223a7.07,7.07,0,0,1-3.25.83,7.17,7.17,0,0,1-6.3-3.91,6.8,6.8,0,0,1-.41-5.36l13.24-41.07L70.93,160,57.69,201.05a6.77,6.77,0,0,1-3.46,4.12A7.12,7.12,0,0,1,51,206a7.08,7.08,0,0,1-6.29-3.9,6.76,6.76,0,0,1-.41-5.36L75,101.45a6.74,6.74,0,0,1,3.47-4.11,7,7,0,0,1,3.25-.82m0-7.72h0a14.7,14.7,0,0,0-6.77,1.67,14.43,14.43,0,0,0-7.29,8.61L36.92,194.36a14.83,14.83,0,0,0,14,19.35A14.78,14.78,0,0,0,57.75,212,14.5,14.5,0,0,0,65,203.42l10.84-33.64,25.75,8.61L90.74,212.2a14.82,14.82,0,0,0,14.05,19.35,14.65,14.65,0,0,0,6.77-1.68,14.43,14.43,0,0,0,7.29-8.61L149.55,126a14.79,14.79,0,0,0-9.47-18.61,15.11,15.11,0,0,0-4.58-.73,14.82,14.82,0,0,0-6.77,1.67,14.45,14.45,0,0,0-7.29,8.62l-10.75,33.35-25.75-8.62,10.8-33.52a14.8,14.8,0,0,0-9.48-18.61,15,15,0,0,0-4.57-.73Z"/><path class="cls-1" d="M236.78,177.65a6.44,6.44,0,0,1,2,.3,7.08,7.08,0,0,1,2.35,1.31,7,7,0,0,1,2.51,4.77l5.51,60.35,39.65-45.79a6.85,6.85,0,0,1,4.81-2.41l.57,0a6.84,6.84,0,0,1,2.11.33,7.35,7.35,0,0,1,2.47,1.43,6.62,6.62,0,0,1,2.41,4.82,6.41,6.41,0,0,1-1.67,5.17l-71.08,81.87c-1.35,1.58-4.7,2.52-4.7,2.52H110A6.63,6.63,0,1,1,110,279h109l17.22-19.85-6.73-73.81a7.16,7.16,0,0,1,.29-2.85,6.75,6.75,0,0,1,1.31-2.35,6.88,6.88,0,0,1,4.84-2.48,7.26,7.26,0,0,1,.8,0m0-7.72h0c-.5,0-1,0-1.53.08a14.57,14.57,0,0,0-10,5.15v0h0a14.68,14.68,0,0,0-2.77,5,14.92,14.92,0,0,0-.62,5.88h0v0l6.43,70.54-12.76,14.71H110A14.34,14.34,0,0,0,110,300H224.75l1-.29c1.68-.47,5.86-1.88,8.46-4.89l71-81.83a14.85,14.85,0,0,0-1.53-20.94,14.82,14.82,0,0,0-5.11-2.91,14.47,14.47,0,0,0-4.48-.7c-.39,0-.78,0-1.17,0h0a14.6,14.6,0,0,0-10,5h0l-27.78,32.08-3.86-42.29h0a14.64,14.64,0,0,0-5.18-9.93h0a14.49,14.49,0,0,0-5-2.76,14,14,0,0,0-4.33-.68Z"/></g></g></svg>